#N canvas 329 172 636 449 10;
#X obj 96 27 inlet~;
#X obj 67 333 outlet~;
#X obj 217 263 outlet~;
#X obj 312 34 inlet;
#X obj 115 223 vline~;
#X msg 115 204 \$1 40;
#X obj 99 243 *~;
#X obj 233 217 vline~;
#X msg 233 197 \$1 40;
#X obj 217 242 *~;
#X obj 329 252 outlet~;
#X obj 458 208 vline~;
#X msg 458 188 \$1 40;
#X obj 443 228 *~;
#X obj 345 208 vline~;
#X msg 346 187 \$1 40;
#X obj 329 229 *~;
#X obj 313 74 clip 0 1;
#X obj 95 290 *~ 0.707;
#X obj 125 336 outlet~;
#X obj 433 337 outlet~;
#X obj 461 294 *~ 0.707;
#X obj 491 340 outlet~;
#X obj 118 166 ipp.pancurver 3 0;
#X obj 234 165 ipp.pancurver 3 1;
#X obj 343 163 ipp.pancurver 3 2;
#X obj 456 162 ipp.pancurver 3 3;
#X connect 0 0 6 0;
#X connect 0 0 9 0;
#X connect 0 0 16 0;
#X connect 0 0 13 0;
#X connect 3 0 17 0;
#X connect 4 0 6 1;
#X connect 5 0 4 0;
#X connect 6 0 18 0;
#X connect 7 0 9 1;
#X connect 8 0 7 0;
#X connect 9 0 2 0;
#X connect 11 0 13 1;
#X connect 12 0 11 0;
#X connect 13 0 21 0;
#X connect 14 0 16 1;
#X connect 15 0 14 0;
#X connect 16 0 10 0;
#X connect 17 0 23 0;
#X connect 17 0 24 0;
#X connect 17 0 25 0;
#X connect 17 0 26 0;
#X connect 18 0 1 0;
#X connect 18 0 19 0;
#X connect 21 0 20 0;
#X connect 21 0 22 0;
#X connect 23 0 5 0;
#X connect 24 0 8 0;
#X connect 25 0 15 0;
#X connect 26 0 12 0;
