#N canvas 329 172 636 449 10;
#X obj 44 31 inlet~;
#X obj 43 406 outlet~;
#X obj 161 405 outlet~;
#X obj 170 26 inlet;
#X msg 59 346 \$1 40;
#X obj 43 385 *~;
#X msg 177 339 \$1 40;
#X obj 161 384 *~;
#X obj 170 112 clip 0 1;
#X obj 177 308 ipp.pancurver 1 1;
#X obj 59 308 ipp.pancurver 1 0;
#X obj 177 359 line~;
#X obj 59 365 line~;
#X connect 0 0 5 0;
#X connect 0 0 7 0;
#X connect 3 0 8 0;
#X connect 4 0 12 0;
#X connect 5 0 1 0;
#X connect 6 0 11 0;
#X connect 7 0 2 0;
#X connect 8 0 9 0;
#X connect 8 0 10 0;
#X connect 9 0 6 0;
#X connect 10 0 4 0;
#X connect 11 0 7 1;
#X connect 12 0 5 1;
