#N canvas 752 240 596 636 10;
#X floatatom 136 64 5 0 0 0 - - -;
#X obj 34 104 ipp.5chpan;
#X obj 73 144 ipp.2chpan;
#X obj 145 171 throw~ box1-audio;
#X obj 380 172 throw~ box2-audio;
#X obj 76 200 ipp.2chpan;
#X obj 147 228 throw~ a1-audio;
#X obj 382 229 throw~ a4-audio;
#X obj 191 318 throw~ a2-audio;
#X obj 80 257 ipp.v4chpan;
#X obj 144 287 throw~ a1-audio;
#X obj 149 349 throw~ b1-audio;
#X obj 294 319 throw~ a3-audio;
#X obj 389 297 throw~ a4-audio;
#X obj 387 352 throw~ b4-audio;
#X obj 84 369 ipp.2chpan;
#X obj 155 397 throw~ b1-audio;
#X obj 390 398 throw~ b4-audio;
#X obj 83 445 ipp.v4chpan;
#X obj 147 475 throw~ b1-audio;
#X obj 392 485 throw~ b4-audio;
#X obj 194 506 throw~ b2-audio;
#X obj 297 507 throw~ b3-audio;
#X obj 152 537 throw~ b2-audio;
#X obj 390 540 throw~ b2-audio;
#X obj 136 28 inlet;
#X obj 203 28 inlet;
#X obj 35 31 inlet~;
#X obj 203 62 t f f f f f;
#X obj 383 34 ipp.layout;
#X connect 1 0 2 0;
#X connect 1 1 5 0;
#X connect 1 2 9 0;
#X connect 1 3 15 0;
#X connect 1 4 18 0;
#X connect 2 0 3 0;
#X connect 2 1 4 0;
#X connect 5 0 6 0;
#X connect 5 1 7 0;
#X connect 9 0 10 0;
#X connect 9 1 11 0;
#X connect 9 2 8 0;
#X connect 9 3 12 0;
#X connect 9 4 13 0;
#X connect 9 5 14 0;
#X connect 15 0 16 0;
#X connect 15 1 17 0;
#X connect 18 0 19 0;
#X connect 18 1 23 0;
#X connect 18 2 21 0;
#X connect 18 3 22 0;
#X connect 18 4 20 0;
#X connect 18 5 24 0;
#X connect 25 0 0 0;
#X connect 25 0 1 1;
#X connect 26 0 28 0;
#X connect 27 0 1 0;
#X connect 28 0 2 1;
#X connect 28 1 5 1;
#X connect 28 2 9 1;
#X connect 28 3 15 1;
#X connect 28 4 18 1;
