#N canvas 473 223 632 585 10;
#X obj 165 201 expr 1-$f1;
#X obj 164 223 clip 0 1;
#X floatatom 241 77 5 0 0 0 - - -;
#X obj 41 17 loadbang;
#X obj 82 35 bng 15 250 50 0 empty empty empty 17 7 0 10 -262144 -1
-1;
#X obj 41 67 f \$2;
#X obj 85 67 f \$1;
#X obj 130 65 f \$3;
#X obj 166 433 outlet;
#X obj 167 34 inlet;
#X obj 165 173 abs;
#X obj 165 147 - 0;
#X obj 166 113 * 4;
#X obj 166 345 cos;
#X obj 165 324 * 1.5708;
#X obj 164 265 expr 1-$f1;
#X connect 0 0 1 0;
#X connect 1 0 15 0;
#X connect 2 0 11 1;
#X connect 3 0 5 0;
#X connect 3 0 6 0;
#X connect 3 0 7 0;
#X connect 4 0 5 0;
#X connect 4 0 6 0;
#X connect 4 0 7 0;
#X connect 5 0 11 1;
#X connect 6 0 12 1;
#X connect 9 0 12 0;
#X connect 10 0 0 0;
#X connect 11 0 10 0;
#X connect 12 0 11 0;
#X connect 13 0 8 0;
#X connect 14 0 13 0;
#X connect 15 0 14 0;
