#N canvas 945 139 827 469 10;
#X obj 35 27 noise~;
#X floatatom 88 75 5 0 0 0 - - -;
#X obj 34 104 dpp.5chpan;
#X obj 189 22 dpp.layout;
#X obj 12 6;
#X obj 34 179 throw~ box1-audio;
#X obj 49 205 throw~ a1-audio;
#X obj 66 230 throw~ a2-audio;
#X obj 81 253 throw~ b1-audio;
#X obj 104 276 throw~ b2-audio;
#X obj 36 57 *~ 0.05;
#X connect 0 0 10 0;
#X connect 1 0 2 1;
#X connect 2 0 5 0;
#X connect 2 1 6 0;
#X connect 2 2 7 0;
#X connect 2 3 8 0;
#X connect 2 4 9 0;
#X connect 10 0 2 0;
