#N canvas 733 142 742 779 10;
#X obj 35 27 noise~;
#X floatatom 82 466 5 0 0 0 - - -;
#X floatatom 119 470 5 0 0 0 - - -;
#X obj 82 385 cos;
#X obj 121 389 cos;
#X obj 83 420 + 1;
#X obj 122 424 + 1;
#X obj 82 442 / 2;
#X obj 120 445 / 2;
#X obj 101 325 f;
#X obj 126 326 + 1;
#X obj 100 304 metro 40;
#X obj 99 279 tgl 15 0 empty empty empty 17 7 0 10 -262144 -1 -1 1
1;
#X obj 82 361 / 50;
#X obj 121 361 / 36;
#X obj 61 91 tgl 15 0 empty empty empty 17 7 0 10 -262144 -1 -1 1 1
;
#X msg 61 141 1 \, 0 50;
#X obj 61 166 line~;
#X obj 61 187 *~;
#X obj 60 119 metro 200;
#X obj 36 61 *~ 0.5;
#X obj 181 512 hsl 128 15 0 1 0 0 empty empty empty -2 -8 0 10 -262144
-1 -1 724 1;
#X obj 162 514 vsl 15 128 1 0 0 0 empty empty empty 0 -9 0 10 -262144
-1 -1 77 1;
#X obj 223 346 r xy;
#X obj 223 392 unpack f f;
#X text 262 349 receiving from tracking system;
#X obj 36 274 *~;
#X obj 35 521 ipp.system;
#X text 231 56 splits bass frequencies at 250 Hz and sends it without
spatialization to the subs.;
#X obj 312 230 s ipp.mastervolume;
#X obj 313 114 vsl 15 99 0.01 1 1 0 empty empty empty 0 -9 0 10 -262144
-1 -1 1100 1;
#X connect 0 0 20 0;
#X connect 1 0 22 0;
#X connect 1 0 27 1;
#X connect 2 0 21 0;
#X connect 2 0 27 2;
#X connect 3 0 5 0;
#X connect 4 0 6 0;
#X connect 5 0 7 0;
#X connect 6 0 8 0;
#X connect 7 0 1 0;
#X connect 8 0 2 0;
#X connect 9 0 10 0;
#X connect 9 0 14 0;
#X connect 9 0 13 0;
#X connect 10 0 9 1;
#X connect 11 0 9 0;
#X connect 12 0 11 0;
#X connect 13 0 3 0;
#X connect 14 0 4 0;
#X connect 15 0 19 0;
#X connect 16 0 17 0;
#X connect 17 0 18 0;
#X connect 17 0 18 1;
#X connect 18 0 26 1;
#X connect 19 0 16 0;
#X connect 20 0 26 0;
#X connect 23 0 24 0;
#X connect 24 0 1 0;
#X connect 24 1 2 0;
#X connect 26 0 27 0;
#X connect 30 0 29 0;
