#N canvas 0 253 1038 740 10;
#X obj 80 262 *~ 0.05;
#X obj 80 294 dac~ \$1;
#X obj 80 11 inlet~;
#X obj 270 108 == 0;
#X obj 78 206 *~;
#X obj 114 207 *~;
#X obj 137 240 r volume;
#X obj 270 84 receive correlation;
#X obj 116 140 delread~ \$0-delay;
#X obj 109 39 delwrite~ \$0-delay 5000;
#X obj 117 65 loadbang;
#X obj 117 88 random 3000;
#X obj 117 110 + 2000;
#X connect 0 0 1 0;
#X connect 2 0 4 0;
#X connect 2 0 9 0;
#X connect 3 0 5 1;
#X connect 4 0 0 0;
#X connect 5 0 0 0;
#X connect 6 0 0 1;
#X connect 7 0 4 1;
#X connect 7 0 3 0;
#X connect 8 0 5 0;
#X connect 10 0 11 0;
#X connect 11 0 12 0;
#X connect 12 0 8 0;
