#N canvas 111 81 1214 889 10;
#X declare -path media;
#X obj 321 123 s correlation;
#X obj 321 94 tgl 15 0 empty empty empty 17 7 0 10 -262144 -1 -1 0
1;
#N canvas 0 22 450 278 (subpatch) 0;
#X array sound-array 518705 float 2;
#X coords 0 1 518705 -1 200 140 1;
#X restore 484 138 graph;
#X obj 192 297 soundfiler;
#X obj 201 159 bng 15 250 50 0 empty empty empty 17 7 0 10 -262144
-1 -1;
#X obj 201 178 openpanel;
#X msg 63 46 bang;
#X obj 46 300 s volume;
#X obj 46 161 vsl 15 128 0 0.5 0 0 empty empty empty 0 -9 0 10 -262144
-1 -1 8200 1;
#X obj 63 125 clone ipp.soundfilespeaker~ 10;
#X msg 225 245 read -resize rain.wav sound-array;
#X msg 217 222 read -resize drop.wav sound-array;
#X msg 200 199 read -resize \$1 sound-array;
#X obj 63 81 tabplay~ sound-array;
#X obj 498 46 declare -path media;
#X msg 235 267 read -resize helicopter.wav sound-array;
#X msg 112 46 stop;
#X connect 1 0 0 0;
#X connect 4 0 5 0;
#X connect 5 0 12 0;
#X connect 6 0 13 0;
#X connect 8 0 7 0;
#X connect 10 0 3 0;
#X connect 11 0 3 0;
#X connect 12 0 3 0;
#X connect 13 0 9 0;
#X connect 13 1 6 0;
#X connect 15 0 3 0;
#X connect 16 0 13 0;
