#N canvas -1273 81 947 714 10;
#X obj 164 104 noise~;
#X obj 343 168 s correlation;
#X obj 343 139 tgl 15 0 empty empty empty 17 7 0 10 -262144 -1 -1 0
1;
#X obj 165 172 clone ipp.noisespeaker~ 12;
#X obj 340 54 tgl 15 0 empty empty empty 17 7 0 10 -262144 -1 -1 1
1;
#X obj 340 91 f;
#X obj 340 110 == 0;
#X obj 340 73 metro 2000;
#X connect 0 0 3 0;
#X connect 2 0 1 0;
#X connect 4 0 7 0;
#X connect 5 0 6 0;
#X connect 6 0 5 1;
#X connect 6 0 2 0;
#X connect 7 0 5 0;
