#N canvas 945 139 827 469 10;
#X obj 35 27 noise~;
#X floatatom 88 75 5 0 0 0 - - -;
#X obj 189 22 ipp.layout;
#X obj 78 243 throw~ a2-audio;
#X obj 34 104 ipp.v4chpan;
#X obj 31 212 throw~ a1-audio;
#X obj 36 274 throw~ b1-audio;
#X obj 181 244 throw~ a3-audio;
#X obj 276 222 throw~ a4-audio;
#X obj 274 277 throw~ b4-audio;
#X obj 36 57 *~ 0.1;
#X connect 0 0 10 0;
#X connect 1 0 4 1;
#X connect 4 0 5 0;
#X connect 4 1 6 0;
#X connect 4 2 3 0;
#X connect 4 3 7 0;
#X connect 4 4 8 0;
#X connect 4 5 9 0;
#X connect 10 0 4 0;
