#N canvas -1727 40 1214 889 10;
#X declare -path media;
#X obj 41 221 s correlation;
#X obj 41 198 tgl 15 0 empty empty empty 17 7 0 10 -262144 -1 -1 0
1;
#N canvas 0 22 450 278 (subpatch) 0;
#X array sound-array 15452 float 2;
#X coords 0 1 15452 -1 200 140 1;
#X restore 365 170 graph;
#X obj 136 175 soundfiler;
#X obj 136 13 bng 15 250 50 0 empty empty empty 17 7 0 10 -262144 -1
-1;
#X obj 136 32 openpanel;
#X msg 162 372 bang;
#X obj 40 156 s volume;
#X obj 40 43 vsl 15 99 0 0.5 0 0 empty empty empty 0 -9 0 10 -262144
-1 -1 0 1;
#X msg 136 53 read -resize \$1 sound-array;
#X obj 136 406 tabplay~ sound-array;
#X obj 443 109 declare -path media;
#X msg 210 373 stop;
#X obj 136 198 t f b;
#X obj 163 222 samplerate~;
#X obj 163 246 / 1000;
#X obj 136 274 / 48;
#X obj 163 322 s sf-length;
#X obj 155 128 symbol;
#X msg 155 151 read -resize \$1.wav sound-array;
#X msg 155 80 birds;
#X msg 198 82 helicopter;
#X msg 275 82 rain;
#X msg 315 82 drop;
#X obj 253 431 s loop;
#X obj 162 345 r loop;
#X obj 136 297 t b f;
#X obj 136 453 clone ipp.soundfilespeaker~ 10;
#X connect 1 0 0 0;
#X connect 3 0 13 0;
#X connect 4 0 5 0;
#X connect 5 0 9 0;
#X connect 6 0 10 0;
#X connect 8 0 7 0;
#X connect 9 0 3 0;
#X connect 10 0 27 0;
#X connect 10 1 24 0;
#X connect 12 0 10 0;
#X connect 13 0 16 0;
#X connect 13 1 14 0;
#X connect 14 0 15 0;
#X connect 15 0 16 1;
#X connect 16 0 26 0;
#X connect 18 0 19 0;
#X connect 19 0 3 0;
#X connect 20 0 18 0;
#X connect 21 0 18 0;
#X connect 22 0 18 0;
#X connect 23 0 18 0;
#X connect 25 0 6 0;
#X connect 26 0 10 0;
#X connect 26 1 17 0;
