#N canvas 329 172 636 449 10;
#X obj 96 27 inlet~;
#X obj 43 406 outlet~;
#X obj 161 405 outlet~;
#X obj 165 26 inlet;
#X obj 59 365 vline~;
#X msg 59 346 \$1 40;
#X obj 43 385 *~;
#X obj 177 359 vline~;
#X msg 177 339 \$1 40;
#X obj 161 384 *~;
#X obj 387 392 outlet~;
#X obj 273 394 outlet~;
#X obj 402 350 vline~;
#X msg 402 330 \$1 40;
#X obj 387 370 *~;
#X obj 289 350 vline~;
#X msg 290 329 \$1 40;
#X obj 273 371 *~;
#X obj 487 393 outlet~;
#X obj 502 351 vline~;
#X msg 502 331 \$1 40;
#X obj 487 371 *~;
#X obj 62 308 pancurver 4 0;
#X obj 178 307 pancurver 4 1;
#X obj 287 305 pancurver 4 2;
#X obj 400 305 pancurver 4 3;
#X obj 499 302 pancurver 4 4;
#X obj 305 123 clip 0 1;
#X connect 0 0 6 0;
#X connect 0 0 9 0;
#X connect 0 0 17 0;
#X connect 0 0 14 0;
#X connect 0 0 21 0;
#X connect 3 0 27 0;
#X connect 4 0 6 1;
#X connect 5 0 4 0;
#X connect 6 0 1 0;
#X connect 7 0 9 1;
#X connect 8 0 7 0;
#X connect 9 0 2 0;
#X connect 12 0 14 1;
#X connect 13 0 12 0;
#X connect 14 0 10 0;
#X connect 15 0 17 1;
#X connect 16 0 15 0;
#X connect 17 0 11 0;
#X connect 19 0 21 1;
#X connect 20 0 19 0;
#X connect 21 0 18 0;
#X connect 22 0 5 0;
#X connect 23 0 8 0;
#X connect 24 0 16 0;
#X connect 25 0 13 0;
#X connect 26 0 20 0;
#X connect 27 0 22 0;
#X connect 27 0 23 0;
#X connect 27 0 24 0;
#X connect 27 0 25 0;
#X connect 27 0 26 0;
