#N canvas -1347 90 1214 889 10;
#X obj 321 123 s correlation;
#X obj 321 94 tgl 15 0 empty empty empty 17 7 0 10 -262144 -1 -1 0
1;
#N canvas 0 22 450 278 (subpatch) 0;
#X array drop-array 741227 float 2;
#X coords 0 1 741227 -1 200 140 1;
#X restore 333 289 graph;
#X obj 191 281 soundfiler;
#X obj 201 159 bng 15 250 50 0 empty empty empty 17 7 0 10 -262144
-1 -1;
#X obj 201 178 openpanel;
#X msg 63 15 bang;
#X obj 46 300 s volume;
#X obj 46 161 vsl 15 128 0 0.5 0 0 empty empty empty 0 -9 0 10 -262144
-1 -1 0 1;
#X msg 217 222 read -resize drop.wav drop-array;
#X obj 63 38 tabplay~ drop-array;
#X msg 200 199 read -resize \$1 drop-array;
#X obj 174 100 delay 500;
#X obj 174 61 t b b;
#X obj 225 80 random 2000;
#X obj 63 125 clone ipp.soundfilespeaker~ 10;
#X msg 225 245 read -resize rain.wav drop-array;
#X connect 1 0 0 0;
#X connect 4 0 5 0;
#X connect 5 0 11 0;
#X connect 6 0 10 0;
#X connect 8 0 7 0;
#X connect 9 0 3 0;
#X connect 10 0 15 0;
#X connect 10 1 13 0;
#X connect 10 1 6 0;
#X connect 11 0 3 0;
#X connect 13 0 12 0;
#X connect 13 1 14 0;
#X connect 14 0 12 1;
#X connect 16 0 3 0;
