#N canvas 253 647 450 300 10;
#X obj 62 217 ipp.panmatrix;
#X obj 245 21 inlet;
#X obj 290 21 inlet;
#X obj 63 14 inlet~;
#X obj 72 103 lop~ 250;
#X obj 72 135 dac~ 3 4;
#X obj 72 82 *~ 0.1;
#X obj 104 42 r ipp.mastervolume;
#X connect 1 0 0 1;
#X connect 2 0 0 2;
#X connect 3 0 0 0;
#X connect 3 0 6 0;
#X connect 4 0 5 0;
#X connect 4 0 5 1;
#X connect 6 0 4 0;
#X connect 7 0 6 1;
