#N canvas -1106 318 1038 740 10;
#X obj 82 200 *~ 0.05;
#X obj 82 232 dac~ \$1;
#X obj 80 11 inlet~;
#X obj 270 108 == 0;
#X obj 80 144 *~;
#X obj 116 145 *~;
#X obj 139 178 r volume;
#X obj 270 84 receive correlation;
#X obj 116 111 delread~ \$0-delay;
#X obj 109 39 delwrite~ \$0-delay 5000;
#X obj 117 88 random 5000;
#X obj 117 65 loadbang;
#X connect 0 0 1 0;
#X connect 2 0 4 0;
#X connect 2 0 9 0;
#X connect 3 0 5 1;
#X connect 4 0 0 0;
#X connect 5 0 0 0;
#X connect 6 0 0 1;
#X connect 7 0 4 1;
#X connect 7 0 3 0;
#X connect 8 0 5 0;
#X connect 10 0 8 0;
#X connect 11 0 10 0;
