#N canvas 0 23 450 300 10;
#X obj 52 3 inlet;
#X obj 52 360 outlet;
#X obj 78 282 textfile;
#X obj 295 104 timer;
#X obj 78 57 list prepend add;
#X obj 78 79 list trim;
#X obj 102 169 bng 15 250 50 0 empty empty empty 17 7 0 10 -262144
-1 -1;
#X msg 102 224 write \$1;
#X text 120 168 save;
#X obj 102 154 bng 15 250 50 0 empty empty empty 17 7 0 10 -262144
-1 -1;
#X text 120 152 open;
#X obj 172 194 openpanel;
#X msg 171 226 read \$1;
#X obj 262 31 inlet;
#X obj 102 139 bng 15 250 50 0 empty empty empty 17 7 0 10 -262144
-1 -1;
#X text 120 137 rewind;
#X msg 164 257 rewind;
#X floatatom 102 123 5 0 0 0 - - -;
#X obj 250 199 metro;
#X obj 230 144 t b f;
#X obj 233 174 delay 50;
#X text 135 122 speed;
#X obj 148 170 bng 15 250 50 0 empty empty empty 17 7 0 10 -262144
-1 -1;
#X text 163 168 del;
#X msg 225 272 clear;
#X text 163 153 rec;
#X obj 148 155 tgl 15 0 empty empty empty 17 7 0 10 -262144 -1 -1 0
1;
#X obj 71 26 spigot 0;
#X obj 17 26 spigot 1;
#X obj 130 29 == 0;
#X obj 102 201 savepanel;
#X connect 0 0 27 0;
#X connect 0 0 28 0;
#X connect 2 0 1 0;
#X connect 4 0 5 0;
#X connect 5 0 2 0;
#X connect 6 0 30 0;
#X connect 7 0 2 0;
#X connect 9 0 11 0;
#X connect 11 0 12 0;
#X connect 12 0 2 0;
#X connect 14 0 16 0;
#X connect 16 0 2 0;
#X connect 17 0 19 0;
#X connect 18 0 2 0;
#X connect 19 0 20 0;
#X connect 19 1 18 1;
#X connect 20 0 18 0;
#X connect 22 0 24 0;
#X connect 24 0 2 0;
#X connect 26 0 27 1;
#X connect 26 0 29 0;
#X connect 27 0 4 0;
#X connect 28 0 1 0;
#X connect 29 0 28 1;
#X connect 30 0 7 0;
#X coords 0 -1 1 1 85 85 1 100 100;
