#N canvas -883 222 728 621 10;
#X obj 130 84 noise~;
#X obj 82 200 *~ 0.05;
#X obj 82 232 dac~ \$1;
#X obj 78 83 inlet~;
#X obj 184 118 == 0;
#X obj 85 145 *~;
#X obj 116 145 *~;
#X obj 139 178 r volume;
#X obj 190 84 receive correlation;
#X connect 0 0 6 0;
#X connect 1 0 2 0;
#X connect 3 0 5 0;
#X connect 4 0 6 1;
#X connect 5 0 1 0;
#X connect 6 0 1 0;
#X connect 7 0 1 1;
#X connect 8 0 5 1;
#X connect 8 0 4 0;
