#N canvas 4 81 947 714 10;
#X obj 33 99 noise~;
#X obj 209 163 s correlation;
#X obj 209 134 tgl 15 0 empty empty empty 17 7 0 10 -262144 -1 -1 0
1;
#X obj 34 167 clone ipp.noisespeaker~ 12;
#X obj 209 49 tgl 15 0 empty empty empty 17 7 0 10 -262144 -1 -1 0
1;
#X obj 209 92 f;
#X obj 234 92 == 0;
#X obj 209 68 metro 2000;
#X text 352 43 This example shows the difference between correlated
and uncorelated noise on a multi-speaker setup. You can understand
noise either as the sum of all frequencies evenly distributed \, or
as random samples in audio rate. When you hear the same noise through
all speakers simultaneously (corelated) \, you should experience comb-filter
effects when moving or turning your head.;
#X connect 0 0 3 0;
#X connect 2 0 1 0;
#X connect 4 0 7 0;
#X connect 5 0 6 0;
#X connect 5 0 2 0;
#X connect 6 0 5 1;
#X connect 7 0 5 0;
