#N canvas 837 223 1038 740 10;
#X obj 82 323 *~ 0.05;
#X obj 80 11 inlet~;
#X obj 133 245 == 0;
#X obj 81 266 *~;
#X obj 118 268 *~;
#X obj 121 300 r volume;
#X obj 119 181 delread~ \$0-delay;
#X obj 120 41 delwrite~ \$0-delay 5000;
#X obj 120 135 random 3000;
#X obj 120 157 + 2000;
#X obj 133 221 r correlation;
#X obj 120 67 r sf-length;
#X obj 120 89 - 4000;
#X obj 81 452 dac~ 1;
#X msg 100 429 set \$1;
#X obj 100 361 loadbang;
#X obj 100 384 f \$1;
#X obj 100 407 + 1;
#X obj 120 111 t b f b;
#X msg 277 17 clear;
#X connect 0 0 13 0;
#X connect 1 0 3 0;
#X connect 1 0 7 0;
#X connect 2 0 4 1;
#X connect 3 0 0 0;
#X connect 4 0 0 0;
#X connect 5 0 0 1;
#X connect 6 0 4 0;
#X connect 8 0 9 0;
#X connect 9 0 6 0;
#X connect 10 0 3 1;
#X connect 10 0 2 0;
#X connect 11 0 12 0;
#X connect 12 0 18 0;
#X connect 14 0 13 0;
#X connect 15 0 16 0;
#X connect 16 0 17 0;
#X connect 17 0 14 0;
#X connect 18 0 8 0;
#X connect 18 1 8 1;
#X connect 18 2 19 0;
#X connect 19 0 7 0;
