#N canvas 1087 178 742 746 10;
#X declare -lib ieamgui;
#X obj 44 708 adc~;
#X obj 59 740 ipp.system;
#X obj 203 228 room_sim_2d 2 25 0 1.4 32 260817 10 10 260817 125 200
62783 0 111 44925 139 211;
#X msg 223 157 nr_src 2;
#X obj 207 513 route 1 2;
#X obj 141 740 ipp.system;
#X msg 257 183 src_font 32;
#X obj 267 580 unpack f f;
#X floatatom 341 606 5 0 0 0 - - -;
#X floatatom 271 604 5 0 0 0 - - -;
#X msg 200 127 room_dim 10 10 \, room_col 14 \, head_col 14;
#X obj 231 537 route src_xy;
#X obj 186 584 unpack f f;
#X floatatom 235 610 5 0 0 0 - - -;
#X floatatom 190 608 5 0 0 0 - - -;
#X obj 150 541 route src_xy;
#X obj 318 629 + 5;
#X floatatom 319 691 5 0 0 0 - - -;
#X obj 279 653 / 10;
#X obj 279 629 + 5;
#X obj 234 656 / 10;
#X obj 234 632 + 5;
#X obj 178 656 / 10;
#X obj 178 632 + 5;
#X floatatom 278 693 5 0 0 0 - - -;
#X obj 318 653 / 10;
#X obj 517 53 declare -lib ieamgui;
#X connect 0 0 1 0;
#X connect 0 1 5 0;
#X connect 2 0 4 0;
#X connect 3 0 2 0;
#X connect 4 0 15 0;
#X connect 4 1 11 0;
#X connect 6 0 2 0;
#X connect 7 0 9 0;
#X connect 7 0 19 0;
#X connect 7 1 8 0;
#X connect 7 1 16 0;
#X connect 10 0 2 0;
#X connect 11 0 7 0;
#X connect 12 0 14 0;
#X connect 12 0 23 0;
#X connect 12 1 13 0;
#X connect 12 1 21 0;
#X connect 15 0 12 0;
#X connect 16 0 25 0;
#X connect 18 0 24 0;
#X connect 19 0 18 0;
#X connect 21 0 20 0;
#X connect 23 0 22 0;
#X connect 25 0 17 0;
