#N struct 1060-point float xPos float yPos float rgb;
#N struct 1061-point float xPos float yPos float rgb;
#N canvas 532 111 742 779 10;
#X declare -path ipp;
#X obj 65 451 adc~;
#X obj 84 541 ipp.system;
#X obj 166 541 ipp.system;
#X obj 517 346 declare -path ipp;
#X obj 161 357 pdpad;
#X obj 165 490 / 100;
#X obj 232 485 / 100;
#X obj 295 482 / 100;
#X obj 334 482 / 100;
#X obj 284 357 pdpad;
#X connect 0 0 1 0;
#X connect 0 1 2 0;
#X connect 4 0 5 0;
#X connect 4 1 6 0;
#X connect 5 0 1 1;
#X connect 6 0 1 2;
#X connect 7 0 2 1;
#X connect 8 0 2 2;
#X connect 9 0 7 0;
#X connect 9 1 8 0;
