#N struct 1058-point float xPos float yPos float rgb;
#N struct 1059-point float xPos float yPos float rgb;
#N canvas 1560 92 298 197 10;
#X declare -path ipp;
#N canvas 785 61 954 874 soundflowerspat 0;
#X obj 32 319 adc~;
#X obj 345 52 declare -path ipp;
#X obj 106 133 pdpad;
#X obj 119 301 / 100;
#X obj 159 300 / 100;
#X obj 222 313 / 100;
#X obj 288 293 / 100;
#X obj 213 133 pdpad;
#X obj 344 33 ipp.layout;
#X obj 348 254 s ipp.mastervolume;
#X obj 345 134 vsl 20 96 0.01 1 1 0 empty empty Vol 0 -9 0 10 -262144
-1 -1 5200 1;
#X text 105 118 Left;
#X text 212 117 Right;
#X obj 286 316 - 1;
#X obj 287 338 abs;
#X obj 159 320 - 1;
#X obj 157 343 abs;
#X msg 106 67 set 0 0;
#X msg 213 66 set 100 0;
#X obj 106 9 loadbang;
#X obj 108 33 delay 500;
#X obj 48 423 lop~ 250;
#X obj 49 487 dac~ 3 4;
#X obj 167 556 ipp.panmatrix;
#X obj 36 560 ipp.panmatrix;
#X obj 165 515 hip~ 100;
#X obj 36 517 hip~ 100;
#X obj 171 420 lop~ 250;
#X obj 171 445 ipp.2chpan;
#X obj 47 449 ipp.2chpan;
#X obj 320 134 vsl 10 96 0.01 1 1 0 empty empty Bass -1 -9 0 10 -262144
-1 -1 5000 1;
#X obj 183 370 line~;
#X obj 168 394 *~;
#X msg 196 346 \$1 10;
#X obj 54 395 *~;
#X connect 0 0 26 0;
#X connect 0 0 34 0;
#X connect 0 1 25 0;
#X connect 0 1 32 0;
#X connect 2 0 3 0;
#X connect 2 1 4 0;
#X connect 3 0 24 2;
#X connect 3 0 29 1;
#X connect 4 0 15 0;
#X connect 5 0 23 2;
#X connect 5 0 28 1;
#X connect 6 0 13 0;
#X connect 7 0 5 0;
#X connect 7 1 6 0;
#X connect 10 0 9 0;
#X connect 13 0 14 0;
#X connect 14 0 23 1;
#X connect 15 0 16 0;
#X connect 16 0 24 1;
#X connect 17 0 2 0;
#X connect 18 0 7 0;
#X connect 19 0 20 0;
#X connect 20 0 17 0;
#X connect 20 0 18 0;
#X connect 21 0 29 0;
#X connect 25 0 23 0;
#X connect 26 0 24 0;
#X connect 27 0 28 0;
#X connect 28 0 22 0;
#X connect 28 1 22 1;
#X connect 29 0 22 0;
#X connect 29 1 22 1;
#X connect 30 0 33 0;
#X connect 31 0 32 1;
#X connect 31 0 34 1;
#X connect 32 0 27 0;
#X connect 33 0 31 0;
#X connect 34 0 21 0;
#X coords 0 -1 1 1 270 140 2 100 100;
#X restore 10 10 pd soundflowerspat;
