#N canvas 758 332 968 392 10;
#X msg 51 85 connect 141.54.159.160 1065;
#X obj 465 297 unpack 0 0 0;
#X floatatom 535 337 5 0 0 0 - - -;
#X obj 465 132 oscparse;
#X obj 465 188 route @;
#X obj 465 211 route blender;
#X obj 465 272 route vector;
#X obj 465 246 route Root;
#X floatatom 44 302 5 0 0 0 - - -;
#X obj 592 243 print oscreceive;
#X obj 127 213 list prepend send;
#X obj 127 238 list trim;
#X msg 66 109 disconnect;
#X msg 41 61 connect kosmos.medien.uni-weimar.de 1065;
#X obj 44 276 netsend -u -b;
#X obj 127 191 oscformat subscribe @ blender Root vector;
#X msg 127 169 bang;
#X obj 465 100 netreceive -u -b 1065 1;
#X obj 465 159 list trim;
#X connect 0 0 14 0;
#X connect 1 2 2 0;
#X connect 3 0 18 0;
#X connect 4 0 5 0;
#X connect 5 0 7 0;
#X connect 5 0 9 0;
#X connect 6 0 1 0;
#X connect 7 0 6 0;
#X connect 10 0 11 0;
#X connect 11 0 14 0;
#X connect 12 0 14 0;
#X connect 13 0 14 0;
#X connect 14 0 8 0;
#X connect 15 0 10 0;
#X connect 16 0 15 0;
#X connect 17 0 3 0;
#X connect 18 0 4 0;
