#N canvas 814 62 968 392 10;
#X msg 51 85 connect 141.54.159.160 1065;
#X msg 105 138 send /subscribe/@/blender/Root/vector;
#X obj 465 258 unpack 0 0 0;
#X floatatom 535 298 5 0 0 0 - - -;
#X obj 465 101 netreceive 1065 1;
#X obj 465 132 oscparse;
#X obj 465 159 route @;
#X obj 465 186 route blender;
#X obj 465 233 route vector;
#X obj 465 207 route Root;
#X floatatom 44 302 5 0 0 0 - - -;
#X obj 577 166 print oscreceive;
#X obj 127 213 list prepend send;
#X obj 127 238 list trim;
#X msg 127 169 symbol blender Root vector;
#X msg 66 109 disconnect;
#X msg 41 61 connect kosmos.medien.uni-weimar.de 1065;
#X msg 476 70 listen 0;
#X msg 466 46 listen 1065;
#X obj 228 309 oscformat subscribe @;
#X msg 229 281 symbol blender Root vector;
#X msg 239 332 symbol vector;
#X obj 238 360 oscformat subscribe @ blender Root;
#X obj 127 191 oscformat -f sssss subscribe @;
#X obj 44 276 netsend -u -b;
#X connect 0 0 24 0;
#X connect 1 0 24 0;
#X connect 2 2 3 0;
#X connect 4 0 5 0;
#X connect 5 0 6 0;
#X connect 5 0 11 0;
#X connect 6 0 7 0;
#X connect 7 0 9 0;
#X connect 8 0 2 0;
#X connect 9 0 8 0;
#X connect 12 0 13 0;
#X connect 13 0 24 0;
#X connect 14 0 23 0;
#X connect 15 0 24 0;
#X connect 16 0 24 0;
#X connect 17 0 4 0;
#X connect 18 0 4 0;
#X connect 19 0 12 0;
#X connect 20 0 19 0;
#X connect 21 0 22 0;
#X connect 22 0 12 0;
#X connect 23 0 12 0;
#X connect 24 0 10 0;
