#N canvas -1762 261 1611 985 10;
#X obj 40 168 udpsend;
#X msg 40 39 connect 141.54.159.160 1065;
#X msg 64 85 send /subscribe/@/blender/Root/vector;
#X obj 64 107 packOSC;
#X obj 352 81 unpackOSC;
#X obj 335 199 route /@/blender/Root/vector;
#X obj 328 224 unpack 0 0 0;
#X floatatom 461 257 8 0 0 0 - - -;
#X obj 40 192 tgl 15 0 empty empty empty 17 7 0 10 -262144 -1 -1 1
1;
#X msg 50 60 disconnect;
#X floatatom 595 231 3 0 0 0 - - -;
#X floatatom 622 231 3 0 0 0 - - -;
#X floatatom 649 231 3 0 0 0 - - -;
#X floatatom 676 231 3 0 0 0 - - -;
#X floatatom 703 232 5 0 0 0 - - -;
#X obj 595 205 unpack 0 0 0 0 0;
#X floatatom 474 152 9 0 0 0 - - -;
#X obj 655 178 tgl 15 0 empty empty empty 17 7 0 10 -4034 -1 -1 0 1
;
#X floatatom 534 178 9 0 0 0 - - -;
#X text 372 151 bytes received:;
#X text 552 230 from:;
#X obj 474 119 route received total from multicast;
#X text 479 177 comment;
#X msg 352 28 status;
#X obj 352 51 udpreceive 1065;
#X obj 228 201 print mrpeach;
#X obj 253 34 tgl 15 0 empty empty empty 17 7 0 10 -262144 -1 -1 1
1;
#X obj 253 55 metro 20000;
#X floatatom 403 257 8 0 0 0 - - -;
#X floatatom 342 256 8 0 0 0 - - -;
#X obj 327 291 / 4000;
#X obj 386 291 / 4000;
#X obj 326 313 + 1;
#X obj 387 312 + 1;
#X obj 387 332 / 2;
#X obj 327 335 / 2;
#X obj 326 356 * -1;
#X obj 388 350 * -1;
#X obj 326 376 + 1;
#X obj 387 375 + 1;
#X floatatom 403 406 5 0 0 0 - - -;
#X floatatom 337 408 5 0 0 0 - - -;
#X obj 323 440 pack f f;
#X obj 330 461 s xy;
#X connect 0 0 8 0;
#X connect 1 0 0 0;
#X connect 2 0 3 0;
#X connect 3 0 0 0;
#X connect 4 0 5 0;
#X connect 4 1 21 0;
#X connect 5 0 6 0;
#X connect 6 0 29 0;
#X connect 6 0 30 0;
#X connect 6 1 28 0;
#X connect 6 1 31 0;
#X connect 6 2 7 0;
#X connect 9 0 0 0;
#X connect 15 0 10 0;
#X connect 15 1 11 0;
#X connect 15 2 12 0;
#X connect 15 3 13 0;
#X connect 15 4 14 0;
#X connect 21 0 16 0;
#X connect 21 1 18 0;
#X connect 21 2 15 0;
#X connect 21 3 17 0;
#X connect 23 0 24 0;
#X connect 24 0 4 0;
#X connect 26 0 27 0;
#X connect 27 0 2 0;
#X connect 30 0 32 0;
#X connect 31 0 33 0;
#X connect 32 0 35 0;
#X connect 33 0 34 0;
#X connect 34 0 37 0;
#X connect 35 0 36 0;
#X connect 36 0 38 0;
#X connect 37 0 39 0;
#X connect 38 0 41 0;
#X connect 38 0 42 0;
#X connect 39 0 40 0;
#X connect 39 0 42 1;
#X connect 42 0 43 0;
