#N canvas 833 457 968 392 10;
#X msg 51 85 connect 141.54.159.160 1065;
#X floatatom 534 321 8 0 0 0 - - -;
#X obj 465 132 oscparse;
#X obj 465 188 route @;
#X obj 465 211 route blender;
#X obj 465 272 route vector;
#X obj 465 246 route Root;
#X floatatom 44 302 5 0 0 0 - - -;
#X obj 592 243 print oscreceive;
#X obj 127 213 list prepend send;
#X obj 127 238 list trim;
#X msg 66 109 disconnect;
#X msg 41 61 connect kosmos.medien.uni-weimar.de 1065;
#X obj 44 276 netsend -u -b;
#X obj 127 191 oscformat subscribe @ blender Root vector;
#X msg 127 156 bang;
#X obj 465 100 netreceive -u -b 1065 1;
#X obj 465 159 list trim;
#X floatatom 499 341 8 0 0 0 - - -;
#X obj 465 297 unpack f f f;
#X floatatom 465 361 8 0 0 0 - - -;
#X obj 172 133 tgl 15 0 empty empty empty 17 7 0 10 -262144 -1 -1 0
1;
#X obj 172 156 metro 20000;
#X connect 0 0 13 0;
#X connect 2 0 17 0;
#X connect 3 0 4 0;
#X connect 4 0 6 0;
#X connect 4 0 8 0;
#X connect 5 0 19 0;
#X connect 6 0 5 0;
#X connect 9 0 10 0;
#X connect 10 0 13 0;
#X connect 11 0 13 0;
#X connect 12 0 13 0;
#X connect 13 0 7 0;
#X connect 14 0 9 0;
#X connect 15 0 14 0;
#X connect 16 0 2 0;
#X connect 17 0 3 0;
#X connect 19 0 20 0;
#X connect 19 1 18 0;
#X connect 19 2 1 0;
#X connect 21 0 22 0;
#X connect 22 0 14 0;
