#N canvas 814 62 968 392 10;
#X obj 465 258 unpack 0 0 0;
#X floatatom 535 298 5 0 0 0 - - -;
#X obj 465 101 netreceive 1065 1;
#X obj 465 132 oscparse;
#X obj 465 159 route @;
#X obj 465 186 route blender;
#X obj 465 233 route vector;
#X obj 465 207 route Root;
#X obj 577 166 print oscreceive;
#X msg 476 70 listen 0;
#X msg 466 46 listen 1065;
#X obj 40 168 udpsend;
#X msg 40 39 connect 141.54.159.160 1065;
#X msg 64 85 send /subscribe/@/blender/Root/vector;
#X obj 64 107 packOSC;
#X obj 40 192 tgl 15 0 empty empty empty 17 7 0 10 -262144 -1 -1 0
1;
#X msg 50 60 disconnect;
#X connect 0 2 1 0;
#X connect 2 0 3 0;
#X connect 3 0 4 0;
#X connect 3 0 8 0;
#X connect 4 0 5 0;
#X connect 5 0 7 0;
#X connect 6 0 0 0;
#X connect 7 0 6 0;
#X connect 9 0 2 0;
#X connect 10 0 2 0;
#X connect 11 0 15 0;
#X connect 12 0 11 0;
#X connect 13 0 14 0;
#X connect 14 0 11 0;
#X connect 16 0 11 0;
